<svg width="100" height="125" xmlns="http://www.w3.org/2000/svg">

 <g>
  <title>background</title>
  <rect fill="none" id="canvas_background" height="402" width="582" y="-1" x="-1"/>
 </g>
 <g>
  <title>Layer 1</title>
  <g id="svg_1">
   <path id="svg_2" fill-rule="evenodd" fill="#000000" d="m49.99265,8.988747c-7.5782,0.009 -15.1537,3.69298 -18.0825,11.03094c-1.4388,-0.30181 -2.9308,-0.45969 -4.4562,-0.45969c-11.8202,0 -21.4541,9.61218 -21.4541,21.42969c0,11.12963 8.5454,20.30153 19.4141,21.33183l0,21.6572c0,0.067 0.0028,0.1338 0.0072,0.1997c0.0603,0.8993 0.5193,1.6671 1.0297,2.1994c0.5478,0.5712 1.1846,0.9766 1.9059,1.3434c1.4426,0.7336 3.2649,1.2929 5.4425,1.7703c4.3553,0.9547 10.1026,1.5197 16.2009,1.5197c6.0936,0 11.8382,-0.565 16.1922,-1.5197c2.1771,-0.4774 3.9992,-1.0367 5.4416,-1.7703c0.7212,-0.3668 1.3575,-0.7722 1.9053,-1.3434c0.518,-0.5402 0.9828,-1.3231 1.0319,-2.2397a2.0002,2.0002 0 0 0 0.005,-0.1594l0,-21.6569c10.877,-1.0296 19.424,-10.202 19.424,-21.33213c0,-11.8175 -9.6348,-21.42969 -21.464,-21.42969c-1.5187,0 -3.0078,0.15774 -4.4453,0.45938c-2.9352,-7.36943 -10.5175,-11.03915 -18.0982,-11.03063zm-0.0015,4.04437c6.4401,-0.0109 12.8831,3.18203 14.7778,9.6097a2.0002,2.0002 0 0 0 0.9956,1.51968a2.0002,2.0002 0 0 0 0.085,0.0472a2.0002,2.0002 0 0 0 0.0403,0.0206a2.0002,2.0002 0 0 0 1.7772,0.0138c1.5416,-0.44533 3.1795,-0.68407 4.8691,-0.68407c9.6727,0 17.464,7.77656 17.464,17.42969c0,9.6531 -7.7913,17.4297 -17.464,17.4297c-3.3047,0 -6.375,-0.9073 -9.0035,-2.4941c2.7936,-2.8496 4.9863,-6.5447 6.3385,-10.71747a2.0002,2.0002 0 1 0 -3.805,-1.23282c-1.4054,4.33679 -3.7641,7.92029 -6.6897,10.37129a2.0002,2.0002 0 0 0 -0.5725,0.459c-2.6089,2.0051 -5.6282,3.1338 -8.8038,3.1338c-3.1861,0 -6.2153,-1.1359 -8.8312,-3.1538a2.0002,2.0002 0 0 0 -0.5272,-0.4234c-2.936,-2.4516 -5.3046,-6.0419 -6.7181,-10.38907a2.0002,2.0002 0 1 0 -3.8041,1.23687c1.3562,4.171 3.5504,7.865 6.3441,10.7141c-2.6254,1.5866 -5.7036,2.4956 -9.0097,2.4956c-9.6616,-0.0001 -17.4541,-7.7766 -17.4541,-17.42973c0,-9.65312 7.7925,-17.42969 17.4541,-17.42969c1.6977,0 3.3334,0.23803 4.8731,0.68219a2.0002,2.0002 0 0 0 1.8209,-0.0312a2.0002,2.0002 0 0 0 0.0857,-0.0469a2.0002,2.0002 0 0 0 0.0369,-0.0222a2.0002,2.0002 0 0 0 0.9581,-1.49c1.8805,-6.39101 8.3199,-9.6079 14.7625,-9.61876l0,-0.00001zm-10.3378,45.5868c3.0475,2.1048 6.5653,3.3191 10.3468,3.3191c3.7801,0 7.2964,-1.2135 10.3425,-3.3169c2.9607,2.0466 6.4606,3.3662 10.2335,3.7082l0,17.424c-1.2435,-0.5073 -2.7073,-0.9248 -4.3825,-1.2931c-4.3543,-0.9574 -10.0994,-1.525 -16.1935,-1.525c-6.0989,0 -11.8467,0.5676 -16.2022,1.525c-1.6758,0.3684 -3.1402,0.7857 -4.384,1.2931l0,-17.424c3.7753,-0.3417 7.2809,-1.6612 10.2394,-3.7104zm10.3468,22.3163c5.8415,0 11.3845,0.563 15.3344,1.4316c1.975,0.4342 3.5592,0.9602 4.485,1.4318c0.1195,0.061 0.2266,0.1211 0.3222,0.1785c-0.0953,0.057 -0.2022,0.1172 -0.3212,0.1778c-0.9257,0.4708 -2.51,0.9953 -4.485,1.4284c-3.9502,0.8662 -9.4933,1.4269 -15.3354,1.4269c-5.8471,0 -11.393,-0.5607 -15.3443,-1.4269c-1.9757,-0.4331 -3.5602,-0.958 -4.486,-1.4287c-0.119,-0.061 -0.2262,-0.1204 -0.3215,-0.1775c0.0956,-0.057 0.203,-0.1176 0.3225,-0.1785c0.9259,-0.4716 2.5103,-0.9976 4.4859,-1.4318c3.9512,-0.8686 9.4969,-1.4316 15.3434,-1.4316z"/>
  </g>
 </g>
</svg>